<svg width="24" height="24" viewBox="0 0 24 24" fill="none" xmlns="http://www.w3.org/2000/svg">
<path d="M12.5 21C12.5 21.276 12.276 21.5 12 21.5H8C5.519 21.5 3.5 19.481 3.5 17V7C3.5 4.519 5.519 2.5 8 2.5H12C12.276 2.5 12.5 2.724 12.5 3C12.5 3.276 12.276 3.5 12 3.5H8C6.07 3.5 4.5 5.07 4.5 7V17C4.5 18.93 6.07 20.5 8 20.5H12C12.276 20.5 12.5 20.724 12.5 21ZM20.354 11.646L16.354 7.646C16.159 7.451 15.842 7.451 15.647 7.646C15.452 7.841 15.452 8.158 15.647 8.353L18.793 11.499H10C9.724 11.499 9.5 11.723 9.5 11.999C9.5 12.275 9.724 12.499 10 12.499H18.793L15.647 15.645C15.452 15.84 15.452 16.157 15.647 16.352C15.745 16.45 15.873 16.498 16.001 16.498C16.129 16.498 16.257 16.449 16.355 16.352L20.355 12.352C20.549 12.158 20.549 11.842 20.354 11.646Z" fill="#3E544F"/>
</svg>
