<svg width="24" height="24" viewBox="0 0 24 24" fill="none" xmlns="http://www.w3.org/2000/svg">
<path d="M15.625 0H8.125C3.65 0 0 3.65 0 8.125V15.625C0 20.1 3.65 23.75 8.125 23.75H15.625C20.1 23.75 23.75 20.1 23.75 15.625V8.125C23.75 3.65 20.1 0 15.625 0ZM16.875 13.125H13.125V16.875C13.125 17.5625 12.5625 18.125 11.875 18.125C11.1875 18.125 10.625 17.5625 10.625 16.875V13.125H6.875C6.1875 13.125 5.625 12.5625 5.625 11.875C5.625 11.1875 6.1875 10.625 6.875 10.625H10.625V6.875C10.625 6.1875 11.1875 5.625 11.875 5.625C12.5625 5.625 13.125 6.1875 13.125 6.875V10.625H16.875C17.5625 10.625 18.125 11.1875 18.125 11.875C18.125 12.5625 17.5625 13.125 16.875 13.125Z" fill="#43A996"/>
</svg>
