<svg width="20" height="20" viewBox="0 0 20 20" fill="none" xmlns="http://www.w3.org/2000/svg">
<path d="M18.3337 5.20833C18.3337 5.66917 17.9603 6.04167 17.5003 6.04167H2.50033C2.04033 6.04167 1.66699 5.66917 1.66699 5.20833C1.66699 4.7475 2.04033 4.375 2.50033 4.375H5.46618C5.82534 4.375 6.14282 4.1466 6.25699 3.80493L6.5203 3.01493C6.7478 2.33327 7.38367 1.875 8.10117 1.875H11.9003C12.6187 1.875 13.2545 2.33329 13.4812 3.01412L13.7445 3.80575C13.8578 4.14575 14.1762 4.375 14.5353 4.375H17.5003C17.9603 4.375 18.3337 4.7475 18.3337 5.20833ZM16.0836 7.73336L15.5753 15.4C15.467 16.9333 14.1837 18.125 12.6587 18.125H7.34199C5.81699 18.125 4.53366 16.9333 4.42532 15.4083L3.917 7.73336C3.90867 7.62502 3.95034 7.50826 4.02534 7.42493C4.10867 7.34159 4.217 7.29167 4.33367 7.29167H15.667C15.7836 7.29167 15.892 7.34159 15.9753 7.42493C16.0503 7.50826 16.092 7.62502 16.0836 7.73336ZM9.16699 10.2083C9.16699 9.75 8.79199 9.375 8.33366 9.375C7.87533 9.375 7.50033 9.75 7.50033 10.2083V14.375C7.50033 14.8333 7.87533 15.2083 8.33366 15.2083C8.79199 15.2083 9.16699 14.8333 9.16699 14.375V10.2083ZM12.5003 10.2083C12.5003 9.75 12.1253 9.375 11.667 9.375C11.2087 9.375 10.8337 9.75 10.8337 10.2083V14.375C10.8337 14.8333 11.2087 15.2083 11.667 15.2083C12.1253 15.2083 12.5003 14.8333 12.5003 14.375V10.2083Z" fill="white"/>
</svg>
